<?xml version="1.0" encoding="utf-8"?>
<!-- Generator: Adobe Illustrator 27.6.1, SVG Export Plug-In . SVG Version: 6.00 Build 0)  -->
<svg version="1.1" id="Calque_1" xmlns="http://www.w3.org/2000/svg" xmlns:xlink="http://www.w3.org/1999/xlink" x="0px" y="0px"
	 viewBox="0 0 283.46 283.46" style="enable-background:new 0 0 283.46 283.46;" xml:space="preserve">
<style type="text/css">
	.st0{fill:#FFFFFF;}
	.st1{fill:none;}
</style>
<rect x="0.21" class="st0" width="282.94" height="282.94"/>
<g transform="translate(122,122)">
	<g transform="translate(488,0) scale(0.61,0.61)">
		<g transform="">
			<rect x="-874.29" y="-174.93" width="12.54" height="12.54"/>
		</g>
	</g>
	<g transform="translate(671,0) scale(0.61,0.61)">
		<g transform="">
			<rect x="-1136.68" y="-174.93" width="12.54" height="12.54"/>
		</g>
	</g>
	<g transform="translate(732,0) scale(0.61,0.61)">
		<g transform="">
			<rect x="-1224.15" y="-174.93" width="12.54" height="12.54"/>
		</g>
	</g>
	<g transform="translate(793,0) scale(0.61,0.61)">
		<g transform="">
			<rect x="-1311.61" y="-174.93" width="12.54" height="12.54"/>
		</g>
	</g>
	<g transform="translate(1098,0) scale(0.61,0.61)">
		<g transform="">
			<rect x="-1748.93" y="-174.93" width="12.54" height="12.54"/>
		</g>
	</g>
	<g transform="translate(1159,0) scale(0.61,0.61)">
		<g transform="">
			<rect x="-1836.4" y="-174.93" width="12.54" height="12.54"/>
		</g>
	</g>
	<g transform="translate(1220,0) scale(0.61,0.61)">
		<g transform="">
			<rect x="-1923.86" y="-174.93" width="12.54" height="12.54"/>
		</g>
	</g>
	<g transform="translate(1281,0) scale(0.61,0.61)">
		<g transform="">
			<rect x="-2011.32" y="-174.93" width="12.54" height="12.54"/>
		</g>
	</g>
	<g transform="translate(1342,0) scale(0.61,0.61)">
		<g transform="">
			<rect x="-2098.79" y="-174.93" width="12.54" height="12.54"/>
		</g>
	</g>
	<g transform="translate(1403,0) scale(0.61,0.61)">
		<g transform="">
			<rect x="-2186.25" y="-174.93" width="12.54" height="12.54"/>
		</g>
	</g>
	<g transform="translate(488,61) scale(0.61,0.61)">
		<g transform="">
			<rect x="-874.29" y="-262.39" width="12.54" height="12.54"/>
		</g>
	</g>
	<g transform="translate(549,61) scale(0.61,0.61)">
		<g transform="">
			<rect x="-961.76" y="-262.39" width="12.54" height="12.54"/>
		</g>
	</g>
	<g transform="translate(671,61) scale(0.61,0.61)">
		<g transform="">
			<rect x="-1136.68" y="-262.39" width="12.54" height="12.54"/>
		</g>
	</g>
	<g transform="translate(793,61) scale(0.61,0.61)">
		<g transform="">
			<rect x="-1311.61" y="-262.39" width="12.54" height="12.54"/>
		</g>
	</g>
	<g transform="translate(976,61) scale(0.61,0.61)">
		<g transform="">
			<rect x="-1574" y="-262.39" width="12.54" height="12.54"/>
		</g>
	</g>
	<g transform="translate(1037,61) scale(0.61,0.61)">
		<g transform="">
			<rect x="-1661.47" y="-262.39" width="12.54" height="12.54"/>
		</g>
	</g>
	<g transform="translate(1098,61) scale(0.61,0.61)">
		<g transform="">
			<rect x="-1748.93" y="-262.39" width="12.54" height="12.54"/>
		</g>
	</g>
	<g transform="translate(1220,61) scale(0.61,0.61)">
		<g transform="">
			<rect x="-1923.86" y="-262.39" width="12.54" height="12.54"/>
		</g>
	</g>
	<g transform="translate(1281,61) scale(0.61,0.61)">
		<g transform="">
			<rect x="-2011.32" y="-262.39" width="12.54" height="12.54"/>
		</g>
	</g>
	<g transform="translate(1342,61) scale(0.61,0.61)">
		<g transform="">
			<rect x="-2098.79" y="-262.39" width="12.54" height="12.54"/>
		</g>
	</g>
	<g transform="translate(1403,61) scale(0.61,0.61)">
		<g transform="">
			<rect x="-2186.25" y="-262.39" width="12.54" height="12.54"/>
		</g>
	</g>
	<g transform="translate(1464,61) scale(0.61,0.61)">
		<g transform="">
			<rect x="-2273.72" y="-262.39" width="12.54" height="12.54"/>
		</g>
	</g>
	<g transform="translate(549,122) scale(0.61,0.61)">
		<g transform="">
			<rect x="-961.76" y="-349.86" width="12.54" height="12.54"/>
		</g>
	</g>
	<g transform="translate(610,122) scale(0.61,0.61)">
		<g transform="">
			<rect x="-1049.22" y="-349.86" width="12.54" height="12.54"/>
		</g>
	</g>
	<g transform="translate(732,122) scale(0.61,0.61)">
		<g transform="">
			<rect x="-1224.15" y="-349.86" width="12.54" height="12.54"/>
		</g>
	</g>
	<g transform="translate(976,122) scale(0.61,0.61)">
		<g transform="">
			<rect x="-1574" y="-349.86" width="12.54" height="12.54"/>
		</g>
	</g>
	<g transform="translate(1159,122) scale(0.61,0.61)">
		<g transform="">
			<rect x="-1836.4" y="-349.86" width="12.54" height="12.54"/>
		</g>
	</g>
	<g transform="translate(1220,122) scale(0.61,0.61)">
		<g transform="">
			<rect x="-1923.86" y="-349.86" width="12.54" height="12.54"/>
		</g>
	</g>
	<g transform="translate(1464,122) scale(0.61,0.61)">
		<g transform="">
			<rect x="-2273.72" y="-349.86" width="12.54" height="12.54"/>
		</g>
	</g>
	<g transform="translate(488,183) scale(0.61,0.61)">
		<g transform="">
			<rect x="-874.29" y="-437.32" width="12.54" height="12.54"/>
		</g>
	</g>
	<g transform="translate(610,183) scale(0.61,0.61)">
		<g transform="">
			<rect x="-1049.22" y="-437.32" width="12.54" height="12.54"/>
		</g>
	</g>
	<g transform="translate(671,183) scale(0.61,0.61)">
		<g transform="">
			<rect x="-1136.68" y="-437.32" width="12.54" height="12.54"/>
		</g>
	</g>
	<g transform="translate(732,183) scale(0.61,0.61)">
		<g transform="">
			<rect x="-1224.15" y="-437.32" width="12.54" height="12.54"/>
		</g>
	</g>
	<g transform="translate(854,183) scale(0.61,0.61)">
		<g transform="">
			<rect x="-1399.08" y="-437.32" width="12.54" height="12.54"/>
		</g>
	</g>
	<g transform="translate(915,183) scale(0.61,0.61)">
		<g transform="">
			<rect x="-1486.54" y="-437.32" width="12.54" height="12.54"/>
		</g>
	</g>
	<g transform="translate(976,183) scale(0.61,0.61)">
		<g transform="">
			<rect x="-1574" y="-437.32" width="12.54" height="12.54"/>
		</g>
	</g>
	<g transform="translate(1037,183) scale(0.61,0.61)">
		<g transform="">
			<rect x="-1661.47" y="-437.32" width="12.54" height="12.54"/>
		</g>
	</g>
	<g transform="translate(1281,183) scale(0.61,0.61)">
		<g transform="">
			<rect x="-2011.32" y="-437.32" width="12.54" height="12.54"/>
		</g>
	</g>
	<g transform="translate(1342,183) scale(0.61,0.61)">
		<g transform="">
			<rect x="-2098.79" y="-437.32" width="12.54" height="12.54"/>
		</g>
	</g>
	<g transform="translate(1464,183) scale(0.61,0.61)">
		<g transform="">
			<rect x="-2273.72" y="-437.32" width="12.54" height="12.54"/>
		</g>
	</g>
	<g transform="translate(671,244) scale(0.61,0.61)">
		<g transform="">
			<rect x="-1136.68" y="-524.78" width="12.54" height="12.54"/>
		</g>
	</g>
	<g transform="translate(793,244) scale(0.61,0.61)">
		<g transform="">
			<rect x="-1311.61" y="-524.78" width="12.54" height="12.54"/>
		</g>
	</g>
	<g transform="translate(854,244) scale(0.61,0.61)">
		<g transform="">
			<rect x="-1399.08" y="-524.78" width="12.54" height="12.54"/>
		</g>
	</g>
	<g transform="translate(1037,244) scale(0.61,0.61)">
		<g transform="">
			<rect x="-1661.47" y="-524.78" width="12.54" height="12.54"/>
		</g>
	</g>
	<g transform="translate(1159,244) scale(0.61,0.61)">
		<g transform="">
			<rect x="-1836.4" y="-524.78" width="12.54" height="12.54"/>
		</g>
	</g>
	<g transform="translate(1342,244) scale(0.61,0.61)">
		<g transform="">
			<rect x="-2098.79" y="-524.78" width="12.54" height="12.54"/>
		</g>
	</g>
	<g transform="translate(1464,244) scale(0.61,0.61)">
		<g transform="">
			<rect x="-2273.72" y="-524.78" width="12.54" height="12.54"/>
		</g>
	</g>
	<g transform="translate(610,305) scale(0.61,0.61)">
		<g transform="">
			<rect x="-1049.22" y="-612.25" width="12.54" height="12.54"/>
		</g>
	</g>
	<g transform="translate(671,305) scale(0.61,0.61)">
		<g transform="">
			<rect x="-1136.68" y="-612.25" width="12.54" height="12.54"/>
		</g>
	</g>
	<g transform="translate(732,305) scale(0.61,0.61)">
		<g transform="">
			<rect x="-1224.15" y="-612.25" width="12.54" height="12.54"/>
		</g>
	</g>
	<g transform="translate(854,305) scale(0.61,0.61)">
		<g transform="">
			<rect x="-1399.08" y="-612.25" width="12.54" height="12.54"/>
		</g>
	</g>
	<g transform="translate(1159,305) scale(0.61,0.61)">
		<g transform="">
			<rect x="-1836.4" y="-612.25" width="12.54" height="12.54"/>
		</g>
	</g>
	<g transform="translate(1464,305) scale(0.61,0.61)">
		<g transform="">
			<rect x="-2273.72" y="-612.25" width="12.54" height="12.54"/>
		</g>
	</g>
	<g transform="translate(488,366) scale(0.61,0.61)">
		<g transform="">
			<rect x="-874.29" y="-699.71" width="12.54" height="12.54"/>
		</g>
	</g>
	<g transform="translate(610,366) scale(0.61,0.61)">
		<g transform="">
			<rect x="-1049.22" y="-699.71" width="12.54" height="12.54"/>
		</g>
	</g>
	<g transform="translate(732,366) scale(0.61,0.61)">
		<g transform="">
			<rect x="-1224.15" y="-699.71" width="12.54" height="12.54"/>
		</g>
	</g>
	<g transform="translate(854,366) scale(0.61,0.61)">
		<g transform="">
			<rect x="-1399.08" y="-699.71" width="12.54" height="12.54"/>
		</g>
	</g>
	<g transform="translate(976,366) scale(0.61,0.61)">
		<g transform="">
			<rect x="-1574" y="-699.71" width="12.54" height="12.54"/>
		</g>
	</g>
	<g transform="translate(1098,366) scale(0.61,0.61)">
		<g transform="">
			<rect x="-1748.93" y="-699.71" width="12.54" height="12.54"/>
		</g>
	</g>
	<g transform="translate(1220,366) scale(0.61,0.61)">
		<g transform="">
			<rect x="-1923.86" y="-699.71" width="12.54" height="12.54"/>
		</g>
	</g>
	<g transform="translate(1342,366) scale(0.61,0.61)">
		<g transform="">
			<rect x="-2098.79" y="-699.71" width="12.54" height="12.54"/>
		</g>
	</g>
	<g transform="translate(1464,366) scale(0.61,0.61)">
		<g transform="">
			<rect x="-2273.72" y="-699.71" width="12.54" height="12.54"/>
		</g>
	</g>
	<g transform="translate(488,427) scale(0.61,0.61)">
		<g transform="">
			<rect x="-874.29" y="-787.18" width="12.54" height="12.54"/>
		</g>
	</g>
	<g transform="translate(549,427) scale(0.61,0.61)">
		<g transform="">
			<rect x="-961.76" y="-787.18" width="12.54" height="12.54"/>
		</g>
	</g>
	<g transform="translate(732,427) scale(0.61,0.61)">
		<g transform="">
			<rect x="-1224.15" y="-787.18" width="12.54" height="12.54"/>
		</g>
	</g>
	<g transform="translate(1037,427) scale(0.61,0.61)">
		<g transform="">
			<rect x="-1661.47" y="-787.18" width="12.54" height="12.54"/>
		</g>
	</g>
	<g transform="translate(1098,427) scale(0.61,0.61)">
		<g transform="">
			<rect x="-1748.93" y="-787.18" width="12.54" height="12.54"/>
		</g>
	</g>
	<g transform="translate(1220,427) scale(0.61,0.61)">
		<g transform="">
			<rect x="-1923.86" y="-787.18" width="12.54" height="12.54"/>
		</g>
	</g>
	<g transform="translate(1342,427) scale(0.61,0.61)">
		<g transform="">
			<rect x="-2098.79" y="-787.18" width="12.54" height="12.54"/>
		</g>
	</g>
	<g transform="translate(1464,427) scale(0.61,0.61)">
		<g transform="">
			<rect x="-2273.72" y="-787.18" width="12.54" height="12.54"/>
		</g>
	</g>
	<g transform="translate(0,488) scale(0.61,0.61)">
		<g transform="">
			<rect x="-174.58" y="-874.64" width="12.54" height="12.54"/>
		</g>
	</g>
	<g transform="translate(122,488) scale(0.61,0.61)">
		<g transform="">
			<rect x="-349.51" y="-874.64" width="12.54" height="12.54"/>
		</g>
	</g>
	<g transform="translate(183,488) scale(0.61,0.61)">
		<g transform="">
			<rect x="-436.97" y="-874.64" width="12.54" height="12.54"/>
		</g>
	</g>
	<g transform="translate(305,488) scale(0.61,0.61)">
		<g transform="">
			<rect x="-611.9" y="-874.64" width="12.54" height="12.54"/>
		</g>
	</g>
	<g transform="translate(366,488) scale(0.61,0.61)">
		<g transform="">
			<rect x="-699.36" y="-874.64" width="12.54" height="12.54"/>
		</g>
	</g>
	<g transform="translate(427,488) scale(0.61,0.61)">
		<g transform="">
			<rect x="-786.83" y="-874.64" width="12.54" height="12.54"/>
		</g>
	</g>
	<g transform="translate(610,488) scale(0.61,0.61)">
		<g transform="">
			<rect x="-1049.22" y="-874.64" width="12.54" height="12.54"/>
		</g>
	</g>
	<g transform="translate(671,488) scale(0.61,0.61)">
		<g transform="">
			<rect x="-1136.68" y="-874.64" width="12.54" height="12.54"/>
		</g>
	</g>
	<g transform="translate(732,488) scale(0.61,0.61)">
		<g transform="">
			<rect x="-1224.15" y="-874.64" width="12.54" height="12.54"/>
		</g>
	</g>
	<g transform="translate(854,488) scale(0.61,0.61)">
		<g transform="">
			<rect x="-1399.08" y="-874.64" width="12.54" height="12.54"/>
		</g>
	</g>
	<g transform="translate(976,488) scale(0.61,0.61)">
		<g transform="">
			<rect x="-1574" y="-874.64" width="12.54" height="12.54"/>
		</g>
	</g>
	<g transform="translate(1037,488) scale(0.61,0.61)">
		<g transform="">
			<rect x="-1661.47" y="-874.64" width="12.54" height="12.54"/>
		</g>
	</g>
	<g transform="translate(1159,488) scale(0.61,0.61)">
		<g transform="">
			<rect x="-1836.4" y="-874.64" width="12.54" height="12.54"/>
		</g>
	</g>
	<g transform="translate(1281,488) scale(0.61,0.61)">
		<g transform="">
			<rect x="-2011.32" y="-874.64" width="12.54" height="12.54"/>
		</g>
	</g>
	<g transform="translate(1403,488) scale(0.61,0.61)">
		<g transform="">
			<rect x="-2186.25" y="-874.64" width="12.54" height="12.54"/>
		</g>
	</g>
	<g transform="translate(1586,488) scale(0.61,0.61)">
		<g transform="">
			<rect x="-2448.64" y="-874.64" width="12.54" height="12.54"/>
		</g>
	</g>
	<g transform="translate(1769,488) scale(0.61,0.61)">
		<g transform="">
			<rect x="-2711.04" y="-874.64" width="12.54" height="12.54"/>
		</g>
	</g>
	<g transform="translate(1891,488) scale(0.61,0.61)">
		<g transform="">
			<rect x="-2885.97" y="-874.64" width="12.54" height="12.54"/>
		</g>
	</g>
	<g transform="translate(1952,488) scale(0.61,0.61)">
		<g transform="">
			<rect x="-2973.43" y="-874.64" width="12.54" height="12.54"/>
		</g>
	</g>
	<g transform="translate(122,549) scale(0.61,0.61)">
		<g transform="">
			<rect x="-349.51" y="-962.1" width="12.54" height="12.54"/>
		</g>
	</g>
	<g transform="translate(305,549) scale(0.61,0.61)">
		<g transform="">
			<rect x="-611.9" y="-962.1" width="12.54" height="12.54"/>
		</g>
	</g>
	<g transform="translate(427,549) scale(0.61,0.61)">
		<g transform="">
			<rect x="-786.83" y="-962.1" width="12.54" height="12.54"/>
		</g>
	</g>
	<g transform="translate(671,549) scale(0.61,0.61)">
		<g transform="">
			<rect x="-1136.68" y="-962.1" width="12.54" height="12.54"/>
		</g>
	</g>
	<g transform="translate(732,549) scale(0.61,0.61)">
		<g transform="">
			<rect x="-1224.15" y="-962.1" width="12.54" height="12.54"/>
		</g>
	</g>
	<g transform="translate(976,549) scale(0.61,0.61)">
		<g transform="">
			<rect x="-1574" y="-962.1" width="12.54" height="12.54"/>
		</g>
	</g>
	<g transform="translate(1098,549) scale(0.61,0.61)">
		<g transform="">
			<rect x="-1748.93" y="-962.1" width="12.54" height="12.54"/>
		</g>
	</g>
	<g transform="translate(1159,549) scale(0.61,0.61)">
		<g transform="">
			<rect x="-1836.4" y="-962.1" width="12.54" height="12.54"/>
		</g>
	</g>
	<g transform="translate(1220,549) scale(0.61,0.61)">
		<g transform="">
			<rect x="-1923.86" y="-962.1" width="12.54" height="12.54"/>
		</g>
	</g>
	<g transform="translate(1342,549) scale(0.61,0.61)">
		<g transform="">
			<rect x="-2098.79" y="-962.1" width="12.54" height="12.54"/>
		</g>
	</g>
	<g transform="translate(1403,549) scale(0.61,0.61)">
		<g transform="">
			<rect x="-2186.25" y="-962.1" width="12.54" height="12.54"/>
		</g>
	</g>
	<g transform="translate(1586,549) scale(0.61,0.61)">
		<g transform="">
			<rect x="-2448.64" y="-962.1" width="12.54" height="12.54"/>
		</g>
	</g>
	<g transform="translate(1647,549) scale(0.61,0.61)">
		<g transform="">
			<rect x="-2536.11" y="-962.1" width="12.54" height="12.54"/>
		</g>
	</g>
	<g transform="translate(1769,549) scale(0.61,0.61)">
		<g transform="">
			<rect x="-2711.04" y="-962.1" width="12.54" height="12.54"/>
		</g>
	</g>
	<g transform="translate(1830,549) scale(0.61,0.61)">
		<g transform="">
			<rect x="-2798.5" y="-962.1" width="12.54" height="12.54"/>
		</g>
	</g>
	<g transform="translate(1891,549) scale(0.61,0.61)">
		<g transform="">
			<rect x="-2885.97" y="-962.1" width="12.54" height="12.54"/>
		</g>
	</g>
	<g transform="translate(1952,549) scale(0.61,0.61)">
		<g transform="">
			<rect x="-2973.43" y="-962.1" width="12.54" height="12.54"/>
		</g>
	</g>
	<g transform="translate(0,610) scale(0.61,0.61)">
		<g transform="">
			<rect x="-174.58" y="-1049.57" width="12.54" height="12.54"/>
		</g>
	</g>
	<g transform="translate(183,610) scale(0.61,0.61)">
		<g transform="">
			<rect x="-436.97" y="-1049.57" width="12.54" height="12.54"/>
		</g>
	</g>
	<g transform="translate(244,610) scale(0.61,0.61)">
		<g transform="">
			<rect x="-524.44" y="-1049.57" width="12.54" height="12.54"/>
		</g>
	</g>
	<g transform="translate(305,610) scale(0.61,0.61)">
		<g transform="">
			<rect x="-611.9" y="-1049.57" width="12.54" height="12.54"/>
		</g>
	</g>
	<g transform="translate(366,610) scale(0.61,0.61)">
		<g transform="">
			<rect x="-699.36" y="-1049.57" width="12.54" height="12.54"/>
		</g>
	</g>
	<g transform="translate(427,610) scale(0.61,0.61)">
		<g transform="">
			<rect x="-786.83" y="-1049.57" width="12.54" height="12.54"/>
		</g>
	</g>
	<g transform="translate(854,610) scale(0.61,0.61)">
		<g transform="">
			<rect x="-1399.08" y="-1049.57" width="12.54" height="12.54"/>
		</g>
	</g>
	<g transform="translate(976,610) scale(0.61,0.61)">
		<g transform="">
			<rect x="-1574" y="-1049.57" width="12.54" height="12.54"/>
		</g>
	</g>
	<g transform="translate(1098,610) scale(0.61,0.61)">
		<g transform="">
			<rect x="-1748.93" y="-1049.57" width="12.54" height="12.54"/>
		</g>
	</g>
	<g transform="translate(1220,610) scale(0.61,0.61)">
		<g transform="">
			<rect x="-1923.86" y="-1049.57" width="12.54" height="12.54"/>
		</g>
	</g>
	<g transform="translate(1281,610) scale(0.61,0.61)">
		<g transform="">
			<rect x="-2011.32" y="-1049.57" width="12.54" height="12.54"/>
		</g>
	</g>
	<g transform="translate(1342,610) scale(0.61,0.61)">
		<g transform="">
			<rect x="-2098.79" y="-1049.57" width="12.54" height="12.54"/>
		</g>
	</g>
	<g transform="translate(1403,610) scale(0.61,0.61)">
		<g transform="">
			<rect x="-2186.25" y="-1049.57" width="12.54" height="12.54"/>
		</g>
	</g>
	<g transform="translate(1464,610) scale(0.61,0.61)">
		<g transform="">
			<rect x="-2273.72" y="-1049.57" width="12.54" height="12.54"/>
		</g>
	</g>
	<g transform="translate(1586,610) scale(0.61,0.61)">
		<g transform="">
			<rect x="-2448.64" y="-1049.57" width="12.54" height="12.54"/>
		</g>
	</g>
	<g transform="translate(1647,610) scale(0.61,0.61)">
		<g transform="">
			<rect x="-2536.11" y="-1049.57" width="12.54" height="12.54"/>
		</g>
	</g>
	<g transform="translate(1708,610) scale(0.61,0.61)">
		<g transform="">
			<rect x="-2623.57" y="-1049.57" width="12.54" height="12.54"/>
		</g>
	</g>
	<g transform="translate(1769,610) scale(0.61,0.61)">
		<g transform="">
			<rect x="-2711.04" y="-1049.57" width="12.54" height="12.54"/>
		</g>
	</g>
	<g transform="translate(1891,610) scale(0.61,0.61)">
		<g transform="">
			<rect x="-2885.97" y="-1049.57" width="12.54" height="12.54"/>
		</g>
	</g>
	<g transform="translate(1952,610) scale(0.61,0.61)">
		<g transform="">
			<rect x="-2973.43" y="-1049.57" width="12.54" height="12.54"/>
		</g>
	</g>
	<g transform="translate(0,671) scale(0.61,0.61)">
		<g transform="">
			<rect x="-174.58" y="-1137.03" width="12.54" height="12.54"/>
		</g>
	</g>
	<g transform="translate(122,671) scale(0.61,0.61)">
		<g transform="">
			<rect x="-349.51" y="-1137.03" width="12.54" height="12.54"/>
		</g>
	</g>
	<g transform="translate(244,671) scale(0.61,0.61)">
		<g transform="">
			<rect x="-524.44" y="-1137.03" width="12.54" height="12.54"/>
		</g>
	</g>
	<g transform="translate(305,671) scale(0.61,0.61)">
		<g transform="">
			<rect x="-611.9" y="-1137.03" width="12.54" height="12.54"/>
		</g>
	</g>
	<g transform="translate(427,671) scale(0.61,0.61)">
		<g transform="">
			<rect x="-786.83" y="-1137.03" width="12.54" height="12.54"/>
		</g>
	</g>
	<g transform="translate(549,671) scale(0.61,0.61)">
		<g transform="">
			<rect x="-961.76" y="-1137.03" width="12.54" height="12.54"/>
		</g>
	</g>
	<g transform="translate(610,671) scale(0.61,0.61)">
		<g transform="">
			<rect x="-1049.22" y="-1137.03" width="12.54" height="12.54"/>
		</g>
	</g>
	<g transform="translate(732,671) scale(0.61,0.61)">
		<g transform="">
			<rect x="-1224.15" y="-1137.03" width="12.54" height="12.54"/>
		</g>
	</g>
	<g transform="translate(793,671) scale(0.61,0.61)">
		<g transform="">
			<rect x="-1311.61" y="-1137.03" width="12.54" height="12.54"/>
		</g>
	</g>
	<g transform="translate(854,671) scale(0.61,0.61)">
		<g transform="">
			<rect x="-1399.08" y="-1137.03" width="12.54" height="12.54"/>
		</g>
	</g>
	<g transform="translate(1220,671) scale(0.61,0.61)">
		<g transform="">
			<rect x="-1923.86" y="-1137.03" width="12.54" height="12.54"/>
		</g>
	</g>
	<g transform="translate(1586,671) scale(0.61,0.61)">
		<g transform="">
			<rect x="-2448.64" y="-1137.03" width="12.54" height="12.54"/>
		</g>
	</g>
	<g transform="translate(1647,671) scale(0.61,0.61)">
		<g transform="">
			<rect x="-2536.11" y="-1137.03" width="12.54" height="12.54"/>
		</g>
	</g>
	<g transform="translate(1769,671) scale(0.61,0.61)">
		<g transform="">
			<rect x="-2711.04" y="-1137.03" width="12.54" height="12.54"/>
		</g>
	</g>
	<g transform="translate(1891,671) scale(0.61,0.61)">
		<g transform="">
			<rect x="-2885.97" y="-1137.03" width="12.54" height="12.54"/>
		</g>
	</g>
	<g transform="translate(1952,671) scale(0.61,0.61)">
		<g transform="">
			<rect x="-2973.43" y="-1137.03" width="12.54" height="12.54"/>
		</g>
	</g>
	<g transform="translate(0,732) scale(0.61,0.61)">
		<g transform="">
			<rect x="-174.58" y="-1224.5" width="12.54" height="12.54"/>
		</g>
	</g>
	<g transform="translate(183,732) scale(0.61,0.61)">
		<g transform="">
			<rect x="-436.97" y="-1224.5" width="12.54" height="12.54"/>
		</g>
	</g>
	<g transform="translate(305,732) scale(0.61,0.61)">
		<g transform="">
			<rect x="-611.9" y="-1224.5" width="12.54" height="12.54"/>
		</g>
	</g>
	<g transform="translate(366,732) scale(0.61,0.61)">
		<g transform="">
			<rect x="-699.36" y="-1224.5" width="12.54" height="12.54"/>
		</g>
	</g>
	<g transform="translate(427,732) scale(0.61,0.61)">
		<g transform="">
			<rect x="-786.83" y="-1224.5" width="12.54" height="12.54"/>
		</g>
	</g>
	<g transform="translate(549,732) scale(0.61,0.61)">
		<g transform="">
			<rect x="-961.76" y="-1224.5" width="12.54" height="12.54"/>
		</g>
	</g>
	<g transform="translate(610,732) scale(0.61,0.61)">
		<g transform="">
			<rect x="-1049.22" y="-1224.5" width="12.54" height="12.54"/>
		</g>
	</g>
	<g transform="translate(1098,732) scale(0.61,0.61)">
		<g transform="">
			<rect x="-1748.93" y="-1224.5" width="12.54" height="12.54"/>
		</g>
	</g>
	<g transform="translate(1159,732) scale(0.61,0.61)">
		<g transform="">
			<rect x="-1836.4" y="-1224.5" width="12.54" height="12.54"/>
		</g>
	</g>
	<g transform="translate(1220,732) scale(0.61,0.61)">
		<g transform="">
			<rect x="-1923.86" y="-1224.5" width="12.54" height="12.54"/>
		</g>
	</g>
	<g transform="translate(1281,732) scale(0.61,0.61)">
		<g transform="">
			<rect x="-2011.32" y="-1224.5" width="12.54" height="12.54"/>
		</g>
	</g>
	<g transform="translate(1342,732) scale(0.61,0.61)">
		<g transform="">
			<rect x="-2098.79" y="-1224.5" width="12.54" height="12.54"/>
		</g>
	</g>
	<g transform="translate(1403,732) scale(0.61,0.61)">
		<g transform="">
			<rect x="-2186.25" y="-1224.5" width="12.54" height="12.54"/>
		</g>
	</g>
	<g transform="translate(1464,732) scale(0.61,0.61)">
		<g transform="">
			<rect x="-2273.72" y="-1224.5" width="12.54" height="12.54"/>
		</g>
	</g>
	<g transform="translate(1525,732) scale(0.61,0.61)">
		<g transform="">
			<rect x="-2361.18" y="-1224.5" width="12.54" height="12.54"/>
		</g>
	</g>
	<g transform="translate(1647,732) scale(0.61,0.61)">
		<g transform="">
			<rect x="-2536.11" y="-1224.5" width="12.54" height="12.54"/>
		</g>
	</g>
	<g transform="translate(1769,732) scale(0.61,0.61)">
		<g transform="">
			<rect x="-2711.04" y="-1224.5" width="12.54" height="12.54"/>
		</g>
	</g>
	<g transform="translate(1891,732) scale(0.61,0.61)">
		<g transform="">
			<rect x="-2885.97" y="-1224.5" width="12.54" height="12.54"/>
		</g>
	</g>
	<g transform="translate(1952,732) scale(0.61,0.61)">
		<g transform="">
			<rect x="-2973.43" y="-1224.5" width="12.54" height="12.54"/>
		</g>
	</g>
	<g transform="translate(305,793) scale(0.61,0.61)">
		<g transform="">
			<rect x="-611.9" y="-1311.96" width="12.54" height="12.54"/>
		</g>
	</g>
	<g transform="translate(427,793) scale(0.61,0.61)">
		<g transform="">
			<rect x="-786.83" y="-1311.96" width="12.54" height="12.54"/>
		</g>
	</g>
	<g transform="translate(488,793) scale(0.61,0.61)">
		<g transform="">
			<rect x="-874.29" y="-1311.96" width="12.54" height="12.54"/>
		</g>
	</g>
	<g transform="translate(671,793) scale(0.61,0.61)">
		<g transform="">
			<rect x="-1136.68" y="-1311.96" width="12.54" height="12.54"/>
		</g>
	</g>
	<g transform="translate(732,793) scale(0.61,0.61)">
		<g transform="">
			<rect x="-1224.15" y="-1311.96" width="12.54" height="12.54"/>
		</g>
	</g>
	<g transform="translate(976,793) scale(0.61,0.61)">
		<g transform="">
			<rect x="-1574" y="-1311.96" width="12.54" height="12.54"/>
		</g>
	</g>
	<g transform="translate(1159,793) scale(0.61,0.61)">
		<g transform="">
			<rect x="-1836.4" y="-1311.96" width="12.54" height="12.54"/>
		</g>
	</g>
	<g transform="translate(1464,793) scale(0.61,0.61)">
		<g transform="">
			<rect x="-2273.72" y="-1311.96" width="12.54" height="12.54"/>
		</g>
	</g>
	<g transform="translate(1647,793) scale(0.61,0.61)">
		<g transform="">
			<rect x="-2536.11" y="-1311.96" width="12.54" height="12.54"/>
		</g>
	</g>
	<g transform="translate(1891,793) scale(0.61,0.61)">
		<g transform="">
			<rect x="-2885.97" y="-1311.96" width="12.54" height="12.54"/>
		</g>
	</g>
	<g transform="translate(0,854) scale(0.61,0.61)">
		<g transform="">
			<rect x="-174.58" y="-1399.42" width="12.54" height="12.54"/>
		</g>
	</g>
	<g transform="translate(61,854) scale(0.61,0.61)">
		<g transform="">
			<rect x="-262.04" y="-1399.42" width="12.54" height="12.54"/>
		</g>
	</g>
	<g transform="translate(244,854) scale(0.61,0.61)">
		<g transform="">
			<rect x="-524.44" y="-1399.42" width="12.54" height="12.54"/>
		</g>
	</g>
	<g transform="translate(366,854) scale(0.61,0.61)">
		<g transform="">
			<rect x="-699.36" y="-1399.42" width="12.54" height="12.54"/>
		</g>
	</g>
	<g transform="translate(488,854) scale(0.61,0.61)">
		<g transform="">
			<rect x="-874.29" y="-1399.42" width="12.54" height="12.54"/>
		</g>
	</g>
	<g transform="translate(732,854) scale(0.61,0.61)">
		<g transform="">
			<rect x="-1224.15" y="-1399.42" width="12.54" height="12.54"/>
		</g>
	</g>
	<g transform="translate(793,854) scale(0.61,0.61)">
		<g transform="">
			<rect x="-1311.61" y="-1399.42" width="12.54" height="12.54"/>
		</g>
	</g>
	<g transform="translate(854,854) scale(0.61,0.61)">
		<g transform="">
			<rect x="-1399.08" y="-1399.42" width="12.54" height="12.54"/>
		</g>
	</g>
	<g transform="translate(915,854) scale(0.61,0.61)">
		<g transform="">
			<rect x="-1486.54" y="-1399.42" width="12.54" height="12.54"/>
		</g>
	</g>
	<g transform="translate(976,854) scale(0.61,0.61)">
		<g transform="">
			<rect x="-1574" y="-1399.42" width="12.54" height="12.54"/>
		</g>
	</g>
	<g transform="translate(1037,854) scale(0.61,0.61)">
		<g transform="">
			<rect x="-1661.47" y="-1399.42" width="12.54" height="12.54"/>
		</g>
	</g>
	<g transform="translate(1098,854) scale(0.61,0.61)">
		<g transform="">
			<rect x="-1748.93" y="-1399.42" width="12.54" height="12.54"/>
		</g>
	</g>
	<g transform="translate(1159,854) scale(0.61,0.61)">
		<g transform="">
			<rect x="-1836.4" y="-1399.42" width="12.54" height="12.54"/>
		</g>
	</g>
	<g transform="translate(1586,854) scale(0.61,0.61)">
		<g transform="">
			<rect x="-2448.64" y="-1399.42" width="12.54" height="12.54"/>
		</g>
	</g>
	<g transform="translate(1647,854) scale(0.61,0.61)">
		<g transform="">
			<rect x="-2536.11" y="-1399.42" width="12.54" height="12.54"/>
		</g>
	</g>
	<g transform="translate(0,915) scale(0.61,0.61)">
		<g transform="">
			<rect x="-174.58" y="-1486.89" width="12.54" height="12.54"/>
		</g>
	</g>
	<g transform="translate(61,915) scale(0.61,0.61)">
		<g transform="">
			<rect x="-262.04" y="-1486.89" width="12.54" height="12.54"/>
		</g>
	</g>
	<g transform="translate(122,915) scale(0.61,0.61)">
		<g transform="">
			<rect x="-349.51" y="-1486.89" width="12.54" height="12.54"/>
		</g>
	</g>
	<g transform="translate(305,915) scale(0.61,0.61)">
		<g transform="">
			<rect x="-611.9" y="-1486.89" width="12.54" height="12.54"/>
		</g>
	</g>
	<g transform="translate(427,915) scale(0.61,0.61)">
		<g transform="">
			<rect x="-786.83" y="-1486.89" width="12.54" height="12.54"/>
		</g>
	</g>
	<g transform="translate(488,915) scale(0.61,0.61)">
		<g transform="">
			<rect x="-874.29" y="-1486.89" width="12.54" height="12.54"/>
		</g>
	</g>
	<g transform="translate(549,915) scale(0.61,0.61)">
		<g transform="">
			<rect x="-961.76" y="-1486.89" width="12.54" height="12.54"/>
		</g>
	</g>
	<g transform="translate(610,915) scale(0.61,0.61)">
		<g transform="">
			<rect x="-1049.22" y="-1486.89" width="12.54" height="12.54"/>
		</g>
	</g>
	<g transform="translate(671,915) scale(0.61,0.61)">
		<g transform="">
			<rect x="-1136.68" y="-1486.89" width="12.54" height="12.54"/>
		</g>
	</g>
	<g transform="translate(793,915) scale(0.61,0.61)">
		<g transform="">
			<rect x="-1311.61" y="-1486.89" width="12.54" height="12.54"/>
		</g>
	</g>
	<g transform="translate(854,915) scale(0.61,0.61)">
		<g transform="">
			<rect x="-1399.08" y="-1486.89" width="12.54" height="12.54"/>
		</g>
	</g>
	<g transform="translate(976,915) scale(0.61,0.61)">
		<g transform="">
			<rect x="-1574" y="-1486.89" width="12.54" height="12.54"/>
		</g>
	</g>
	<g transform="translate(1098,915) scale(0.61,0.61)">
		<g transform="">
			<rect x="-1748.93" y="-1486.89" width="12.54" height="12.54"/>
		</g>
	</g>
	<g transform="translate(1159,915) scale(0.61,0.61)">
		<g transform="">
			<rect x="-1836.4" y="-1486.89" width="12.54" height="12.54"/>
		</g>
	</g>
	<g transform="translate(1220,915) scale(0.61,0.61)">
		<g transform="">
			<rect x="-1923.86" y="-1486.89" width="12.54" height="12.54"/>
		</g>
	</g>
	<g transform="translate(1281,915) scale(0.61,0.61)">
		<g transform="">
			<rect x="-2011.32" y="-1486.89" width="12.54" height="12.54"/>
		</g>
	</g>
	<g transform="translate(1525,915) scale(0.61,0.61)">
		<g transform="">
			<rect x="-2361.18" y="-1486.89" width="12.54" height="12.54"/>
		</g>
	</g>
	<g transform="translate(1586,915) scale(0.61,0.61)">
		<g transform="">
			<rect x="-2448.64" y="-1486.89" width="12.54" height="12.54"/>
		</g>
	</g>
	<g transform="translate(1708,915) scale(0.61,0.61)">
		<g transform="">
			<rect x="-2623.57" y="-1486.89" width="12.54" height="12.54"/>
		</g>
	</g>
	<g transform="translate(1769,915) scale(0.61,0.61)">
		<g transform="">
			<rect x="-2711.04" y="-1486.89" width="12.54" height="12.54"/>
		</g>
	</g>
	<g transform="translate(1830,915) scale(0.61,0.61)">
		<g transform="">
			<rect x="-2798.5" y="-1486.89" width="12.54" height="12.54"/>
		</g>
	</g>
	<g transform="translate(122,976) scale(0.61,0.61)">
		<g transform="">
			<rect x="-349.51" y="-1574.35" width="12.54" height="12.54"/>
		</g>
	</g>
	<g transform="translate(183,976) scale(0.61,0.61)">
		<g transform="">
			<rect x="-436.97" y="-1574.35" width="12.54" height="12.54"/>
		</g>
	</g>
	<g transform="translate(244,976) scale(0.61,0.61)">
		<g transform="">
			<rect x="-524.44" y="-1574.35" width="12.54" height="12.54"/>
		</g>
	</g>
	<g transform="translate(305,976) scale(0.61,0.61)">
		<g transform="">
			<rect x="-611.9" y="-1574.35" width="12.54" height="12.54"/>
		</g>
	</g>
	<g transform="translate(366,976) scale(0.61,0.61)">
		<g transform="">
			<rect x="-699.36" y="-1574.35" width="12.54" height="12.54"/>
		</g>
	</g>
	<g transform="translate(488,976) scale(0.61,0.61)">
		<g transform="">
			<rect x="-874.29" y="-1574.35" width="12.54" height="12.54"/>
		</g>
	</g>
	<g transform="translate(549,976) scale(0.61,0.61)">
		<g transform="">
			<rect x="-961.76" y="-1574.35" width="12.54" height="12.54"/>
		</g>
	</g>
	<g transform="translate(793,976) scale(0.61,0.61)">
		<g transform="">
			<rect x="-1311.61" y="-1574.35" width="12.54" height="12.54"/>
		</g>
	</g>
	<g transform="translate(854,976) scale(0.61,0.61)">
		<g transform="">
			<rect x="-1399.08" y="-1574.35" width="12.54" height="12.54"/>
		</g>
	</g>
	<g transform="translate(915,976) scale(0.61,0.61)">
		<g transform="">
			<rect x="-1486.54" y="-1574.35" width="12.54" height="12.54"/>
		</g>
	</g>
	<g transform="translate(1098,976) scale(0.61,0.61)">
		<g transform="">
			<rect x="-1748.93" y="-1574.35" width="12.54" height="12.54"/>
		</g>
	</g>
	<g transform="translate(1159,976) scale(0.61,0.61)">
		<g transform="">
			<rect x="-1836.4" y="-1574.35" width="12.54" height="12.54"/>
		</g>
	</g>
	<g transform="translate(1220,976) scale(0.61,0.61)">
		<g transform="">
			<rect x="-1923.86" y="-1574.35" width="12.54" height="12.54"/>
		</g>
	</g>
	<g transform="translate(1281,976) scale(0.61,0.61)">
		<g transform="">
			<rect x="-2011.32" y="-1574.35" width="12.54" height="12.54"/>
		</g>
	</g>
	<g transform="translate(1342,976) scale(0.61,0.61)">
		<g transform="">
			<rect x="-2098.79" y="-1574.35" width="12.54" height="12.54"/>
		</g>
	</g>
	<g transform="translate(1525,976) scale(0.61,0.61)">
		<g transform="">
			<rect x="-2361.18" y="-1574.35" width="12.54" height="12.54"/>
		</g>
	</g>
	<g transform="translate(1586,976) scale(0.61,0.61)">
		<g transform="">
			<rect x="-2448.64" y="-1574.35" width="12.54" height="12.54"/>
		</g>
	</g>
	<g transform="translate(1708,976) scale(0.61,0.61)">
		<g transform="">
			<rect x="-2623.57" y="-1574.35" width="12.54" height="12.54"/>
		</g>
	</g>
	<g transform="translate(1769,976) scale(0.61,0.61)">
		<g transform="">
			<rect x="-2711.04" y="-1574.35" width="12.54" height="12.54"/>
		</g>
	</g>
	<g transform="translate(1830,976) scale(0.61,0.61)">
		<g transform="">
			<rect x="-2798.5" y="-1574.35" width="12.54" height="12.54"/>
		</g>
	</g>
	<g transform="translate(0,1037) scale(0.61,0.61)">
		<g transform="">
			<rect x="-174.58" y="-1661.82" width="12.54" height="12.54"/>
		</g>
	</g>
	<g transform="translate(61,1037) scale(0.61,0.61)">
		<g transform="">
			<rect x="-262.04" y="-1661.82" width="12.54" height="12.54"/>
		</g>
	</g>
	<g transform="translate(122,1037) scale(0.61,0.61)">
		<g transform="">
			<rect x="-349.51" y="-1661.82" width="12.54" height="12.54"/>
		</g>
	</g>
	<g transform="translate(183,1037) scale(0.61,0.61)">
		<g transform="">
			<rect x="-436.97" y="-1661.82" width="12.54" height="12.54"/>
		</g>
	</g>
	<g transform="translate(671,1037) scale(0.61,0.61)">
		<g transform="">
			<rect x="-1136.68" y="-1661.82" width="12.54" height="12.54"/>
		</g>
	</g>
	<g transform="translate(793,1037) scale(0.61,0.61)">
		<g transform="">
			<rect x="-1311.61" y="-1661.82" width="12.54" height="12.54"/>
		</g>
	</g>
	<g transform="translate(915,1037) scale(0.61,0.61)">
		<g transform="">
			<rect x="-1486.54" y="-1661.82" width="12.54" height="12.54"/>
		</g>
	</g>
	<g transform="translate(1037,1037) scale(0.61,0.61)">
		<g transform="">
			<rect x="-1661.47" y="-1661.82" width="12.54" height="12.54"/>
		</g>
	</g>
	<g transform="translate(1220,1037) scale(0.61,0.61)">
		<g transform="">
			<rect x="-1923.86" y="-1661.82" width="12.54" height="12.54"/>
		</g>
	</g>
	<g transform="translate(1342,1037) scale(0.61,0.61)">
		<g transform="">
			<rect x="-2098.79" y="-1661.82" width="12.54" height="12.54"/>
		</g>
	</g>
	<g transform="translate(1403,1037) scale(0.61,0.61)">
		<g transform="">
			<rect x="-2186.25" y="-1661.82" width="12.54" height="12.54"/>
		</g>
	</g>
	<g transform="translate(1464,1037) scale(0.61,0.61)">
		<g transform="">
			<rect x="-2273.72" y="-1661.82" width="12.54" height="12.54"/>
		</g>
	</g>
	<g transform="translate(1525,1037) scale(0.61,0.61)">
		<g transform="">
			<rect x="-2361.18" y="-1661.82" width="12.54" height="12.54"/>
		</g>
	</g>
	<g transform="translate(1586,1037) scale(0.61,0.61)">
		<g transform="">
			<rect x="-2448.64" y="-1661.82" width="12.54" height="12.54"/>
		</g>
	</g>
	<g transform="translate(1708,1037) scale(0.61,0.61)">
		<g transform="">
			<rect x="-2623.57" y="-1661.82" width="12.54" height="12.54"/>
		</g>
	</g>
	<g transform="translate(1769,1037) scale(0.61,0.61)">
		<g transform="">
			<rect x="-2711.04" y="-1661.82" width="12.54" height="12.54"/>
		</g>
	</g>
	<g transform="translate(1891,1037) scale(0.61,0.61)">
		<g transform="">
			<rect x="-2885.97" y="-1661.82" width="12.54" height="12.54"/>
		</g>
	</g>
	<g transform="translate(1952,1037) scale(0.61,0.61)">
		<g transform="">
			<rect x="-2973.43" y="-1661.82" width="12.54" height="12.54"/>
		</g>
	</g>
	<g transform="translate(61,1098) scale(0.61,0.61)">
		<g transform="">
			<rect x="-262.04" y="-1749.28" width="12.54" height="12.54"/>
		</g>
	</g>
	<g transform="translate(122,1098) scale(0.61,0.61)">
		<g transform="">
			<rect x="-349.51" y="-1749.28" width="12.54" height="12.54"/>
		</g>
	</g>
	<g transform="translate(366,1098) scale(0.61,0.61)">
		<g transform="">
			<rect x="-699.36" y="-1749.28" width="12.54" height="12.54"/>
		</g>
	</g>
	<g transform="translate(427,1098) scale(0.61,0.61)">
		<g transform="">
			<rect x="-786.83" y="-1749.28" width="12.54" height="12.54"/>
		</g>
	</g>
	<g transform="translate(549,1098) scale(0.61,0.61)">
		<g transform="">
			<rect x="-961.76" y="-1749.28" width="12.54" height="12.54"/>
		</g>
	</g>
	<g transform="translate(610,1098) scale(0.61,0.61)">
		<g transform="">
			<rect x="-1049.22" y="-1749.28" width="12.54" height="12.54"/>
		</g>
	</g>
	<g transform="translate(732,1098) scale(0.61,0.61)">
		<g transform="">
			<rect x="-1224.15" y="-1749.28" width="12.54" height="12.54"/>
		</g>
	</g>
	<g transform="translate(793,1098) scale(0.61,0.61)">
		<g transform="">
			<rect x="-1311.61" y="-1749.28" width="12.54" height="12.54"/>
		</g>
	</g>
	<g transform="translate(915,1098) scale(0.61,0.61)">
		<g transform="">
			<rect x="-1486.54" y="-1749.28" width="12.54" height="12.54"/>
		</g>
	</g>
	<g transform="translate(1037,1098) scale(0.61,0.61)">
		<g transform="">
			<rect x="-1661.47" y="-1749.28" width="12.54" height="12.54"/>
		</g>
	</g>
	<g transform="translate(1220,1098) scale(0.61,0.61)">
		<g transform="">
			<rect x="-1923.86" y="-1749.28" width="12.54" height="12.54"/>
		</g>
	</g>
	<g transform="translate(1281,1098) scale(0.61,0.61)">
		<g transform="">
			<rect x="-2011.32" y="-1749.28" width="12.54" height="12.54"/>
		</g>
	</g>
	<g transform="translate(1464,1098) scale(0.61,0.61)">
		<g transform="">
			<rect x="-2273.72" y="-1749.28" width="12.54" height="12.54"/>
		</g>
	</g>
	<g transform="translate(1647,1098) scale(0.61,0.61)">
		<g transform="">
			<rect x="-2536.11" y="-1749.28" width="12.54" height="12.54"/>
		</g>
	</g>
	<g transform="translate(1708,1098) scale(0.61,0.61)">
		<g transform="">
			<rect x="-2623.57" y="-1749.28" width="12.54" height="12.54"/>
		</g>
	</g>
	<g transform="translate(1830,1098) scale(0.61,0.61)">
		<g transform="">
			<rect x="-2798.5" y="-1749.28" width="12.54" height="12.54"/>
		</g>
	</g>
	<g transform="translate(1891,1098) scale(0.61,0.61)">
		<g transform="">
			<rect x="-2885.97" y="-1749.28" width="12.54" height="12.54"/>
		</g>
	</g>
	<g transform="translate(0,1159) scale(0.61,0.61)">
		<g transform="">
			<rect x="-174.58" y="-1836.75" width="12.54" height="12.54"/>
		</g>
	</g>
	<g transform="translate(61,1159) scale(0.61,0.61)">
		<g transform="">
			<rect x="-262.04" y="-1836.75" width="12.54" height="12.54"/>
		</g>
	</g>
	<g transform="translate(122,1159) scale(0.61,0.61)">
		<g transform="">
			<rect x="-349.51" y="-1836.75" width="12.54" height="12.54"/>
		</g>
	</g>
	<g transform="translate(183,1159) scale(0.61,0.61)">
		<g transform="">
			<rect x="-436.97" y="-1836.75" width="12.54" height="12.54"/>
		</g>
	</g>
	<g transform="translate(427,1159) scale(0.61,0.61)">
		<g transform="">
			<rect x="-786.83" y="-1836.75" width="12.54" height="12.54"/>
		</g>
	</g>
	<g transform="translate(488,1159) scale(0.61,0.61)">
		<g transform="">
			<rect x="-874.29" y="-1836.75" width="12.54" height="12.54"/>
		</g>
	</g>
	<g transform="translate(610,1159) scale(0.61,0.61)">
		<g transform="">
			<rect x="-1049.22" y="-1836.75" width="12.54" height="12.54"/>
		</g>
	</g>
	<g transform="translate(671,1159) scale(0.61,0.61)">
		<g transform="">
			<rect x="-1136.68" y="-1836.75" width="12.54" height="12.54"/>
		</g>
	</g>
	<g transform="translate(793,1159) scale(0.61,0.61)">
		<g transform="">
			<rect x="-1311.61" y="-1836.75" width="12.54" height="12.54"/>
		</g>
	</g>
	<g transform="translate(915,1159) scale(0.61,0.61)">
		<g transform="">
			<rect x="-1486.54" y="-1836.75" width="12.54" height="12.54"/>
		</g>
	</g>
	<g transform="translate(976,1159) scale(0.61,0.61)">
		<g transform="">
			<rect x="-1574" y="-1836.75" width="12.54" height="12.54"/>
		</g>
	</g>
	<g transform="translate(1220,1159) scale(0.61,0.61)">
		<g transform="">
			<rect x="-1923.86" y="-1836.75" width="12.54" height="12.54"/>
		</g>
	</g>
	<g transform="translate(1342,1159) scale(0.61,0.61)">
		<g transform="">
			<rect x="-2098.79" y="-1836.75" width="12.54" height="12.54"/>
		</g>
	</g>
	<g transform="translate(1403,1159) scale(0.61,0.61)">
		<g transform="">
			<rect x="-2186.25" y="-1836.75" width="12.54" height="12.54"/>
		</g>
	</g>
	<g transform="translate(1464,1159) scale(0.61,0.61)">
		<g transform="">
			<rect x="-2273.72" y="-1836.75" width="12.54" height="12.54"/>
		</g>
	</g>
	<g transform="translate(1525,1159) scale(0.61,0.61)">
		<g transform="">
			<rect x="-2361.18" y="-1836.75" width="12.54" height="12.54"/>
		</g>
	</g>
	<g transform="translate(1586,1159) scale(0.61,0.61)">
		<g transform="">
			<rect x="-2448.64" y="-1836.75" width="12.54" height="12.54"/>
		</g>
	</g>
	<g transform="translate(1708,1159) scale(0.61,0.61)">
		<g transform="">
			<rect x="-2623.57" y="-1836.75" width="12.54" height="12.54"/>
		</g>
	</g>
	<g transform="translate(1891,1159) scale(0.61,0.61)">
		<g transform="">
			<rect x="-2885.97" y="-1836.75" width="12.54" height="12.54"/>
		</g>
	</g>
	<g transform="translate(0,1220) scale(0.61,0.61)">
		<g transform="">
			<rect x="-174.58" y="-1924.21" width="12.54" height="12.54"/>
		</g>
	</g>
	<g transform="translate(61,1220) scale(0.61,0.61)">
		<g transform="">
			<rect x="-262.04" y="-1924.21" width="12.54" height="12.54"/>
		</g>
	</g>
	<g transform="translate(122,1220) scale(0.61,0.61)">
		<g transform="">
			<rect x="-349.51" y="-1924.21" width="12.54" height="12.54"/>
		</g>
	</g>
	<g transform="translate(244,1220) scale(0.61,0.61)">
		<g transform="">
			<rect x="-524.44" y="-1924.21" width="12.54" height="12.54"/>
		</g>
	</g>
	<g transform="translate(305,1220) scale(0.61,0.61)">
		<g transform="">
			<rect x="-611.9" y="-1924.21" width="12.54" height="12.54"/>
		</g>
	</g>
	<g transform="translate(366,1220) scale(0.61,0.61)">
		<g transform="">
			<rect x="-699.36" y="-1924.21" width="12.54" height="12.54"/>
		</g>
	</g>
	<g transform="translate(488,1220) scale(0.61,0.61)">
		<g transform="">
			<rect x="-874.29" y="-1924.21" width="12.54" height="12.54"/>
		</g>
	</g>
	<g transform="translate(549,1220) scale(0.61,0.61)">
		<g transform="">
			<rect x="-961.76" y="-1924.21" width="12.54" height="12.54"/>
		</g>
	</g>
	<g transform="translate(610,1220) scale(0.61,0.61)">
		<g transform="">
			<rect x="-1049.22" y="-1924.21" width="12.54" height="12.54"/>
		</g>
	</g>
	<g transform="translate(793,1220) scale(0.61,0.61)">
		<g transform="">
			<rect x="-1311.61" y="-1924.21" width="12.54" height="12.54"/>
		</g>
	</g>
	<g transform="translate(854,1220) scale(0.61,0.61)">
		<g transform="">
			<rect x="-1399.08" y="-1924.21" width="12.54" height="12.54"/>
		</g>
	</g>
	<g transform="translate(915,1220) scale(0.61,0.61)">
		<g transform="">
			<rect x="-1486.54" y="-1924.21" width="12.54" height="12.54"/>
		</g>
	</g>
	<g transform="translate(1098,1220) scale(0.61,0.61)">
		<g transform="">
			<rect x="-1748.93" y="-1924.21" width="12.54" height="12.54"/>
		</g>
	</g>
	<g transform="translate(1159,1220) scale(0.61,0.61)">
		<g transform="">
			<rect x="-1836.4" y="-1924.21" width="12.54" height="12.54"/>
		</g>
	</g>
	<g transform="translate(1403,1220) scale(0.61,0.61)">
		<g transform="">
			<rect x="-2186.25" y="-1924.21" width="12.54" height="12.54"/>
		</g>
	</g>
	<g transform="translate(1769,1220) scale(0.61,0.61)">
		<g transform="">
			<rect x="-2711.04" y="-1924.21" width="12.54" height="12.54"/>
		</g>
	</g>
	<g transform="translate(1830,1220) scale(0.61,0.61)">
		<g transform="">
			<rect x="-2798.5" y="-1924.21" width="12.54" height="12.54"/>
		</g>
	</g>
	<g transform="translate(1952,1220) scale(0.61,0.61)">
		<g transform="">
			<rect x="-2973.43" y="-1924.21" width="12.54" height="12.54"/>
		</g>
	</g>
	<g transform="translate(0,1281) scale(0.61,0.61)">
		<g transform="">
			<rect x="-174.58" y="-2011.67" width="12.54" height="12.54"/>
		</g>
	</g>
	<g transform="translate(61,1281) scale(0.61,0.61)">
		<g transform="">
			<rect x="-262.04" y="-2011.67" width="12.54" height="12.54"/>
		</g>
	</g>
	<g transform="translate(244,1281) scale(0.61,0.61)">
		<g transform="">
			<rect x="-524.44" y="-2011.67" width="12.54" height="12.54"/>
		</g>
	</g>
	<g transform="translate(427,1281) scale(0.61,0.61)">
		<g transform="">
			<rect x="-786.83" y="-2011.67" width="12.54" height="12.54"/>
		</g>
	</g>
	<g transform="translate(549,1281) scale(0.61,0.61)">
		<g transform="">
			<rect x="-961.76" y="-2011.67" width="12.54" height="12.54"/>
		</g>
	</g>
	<g transform="translate(610,1281) scale(0.61,0.61)">
		<g transform="">
			<rect x="-1049.22" y="-2011.67" width="12.54" height="12.54"/>
		</g>
	</g>
	<g transform="translate(732,1281) scale(0.61,0.61)">
		<g transform="">
			<rect x="-1224.15" y="-2011.67" width="12.54" height="12.54"/>
		</g>
	</g>
	<g transform="translate(915,1281) scale(0.61,0.61)">
		<g transform="">
			<rect x="-1486.54" y="-2011.67" width="12.54" height="12.54"/>
		</g>
	</g>
	<g transform="translate(1098,1281) scale(0.61,0.61)">
		<g transform="">
			<rect x="-1748.93" y="-2011.67" width="12.54" height="12.54"/>
		</g>
	</g>
	<g transform="translate(1159,1281) scale(0.61,0.61)">
		<g transform="">
			<rect x="-1836.4" y="-2011.67" width="12.54" height="12.54"/>
		</g>
	</g>
	<g transform="translate(1403,1281) scale(0.61,0.61)">
		<g transform="">
			<rect x="-2186.25" y="-2011.67" width="12.54" height="12.54"/>
		</g>
	</g>
	<g transform="translate(1525,1281) scale(0.61,0.61)">
		<g transform="">
			<rect x="-2361.18" y="-2011.67" width="12.54" height="12.54"/>
		</g>
	</g>
	<g transform="translate(1586,1281) scale(0.61,0.61)">
		<g transform="">
			<rect x="-2448.64" y="-2011.67" width="12.54" height="12.54"/>
		</g>
	</g>
	<g transform="translate(1647,1281) scale(0.61,0.61)">
		<g transform="">
			<rect x="-2536.11" y="-2011.67" width="12.54" height="12.54"/>
		</g>
	</g>
	<g transform="translate(1769,1281) scale(0.61,0.61)">
		<g transform="">
			<rect x="-2711.04" y="-2011.67" width="12.54" height="12.54"/>
		</g>
	</g>
	<g transform="translate(1830,1281) scale(0.61,0.61)">
		<g transform="">
			<rect x="-2798.5" y="-2011.67" width="12.54" height="12.54"/>
		</g>
	</g>
	<g transform="translate(1952,1281) scale(0.61,0.61)">
		<g transform="">
			<rect x="-2973.43" y="-2011.67" width="12.54" height="12.54"/>
		</g>
	</g>
	<g transform="translate(366,1342) scale(0.61,0.61)">
		<g transform="">
			<rect x="-699.36" y="-2099.14" width="12.54" height="12.54"/>
		</g>
	</g>
	<g transform="translate(610,1342) scale(0.61,0.61)">
		<g transform="">
			<rect x="-1049.22" y="-2099.14" width="12.54" height="12.54"/>
		</g>
	</g>
	<g transform="translate(671,1342) scale(0.61,0.61)">
		<g transform="">
			<rect x="-1136.68" y="-2099.14" width="12.54" height="12.54"/>
		</g>
	</g>
	<g transform="translate(793,1342) scale(0.61,0.61)">
		<g transform="">
			<rect x="-1311.61" y="-2099.14" width="12.54" height="12.54"/>
		</g>
	</g>
	<g transform="translate(976,1342) scale(0.61,0.61)">
		<g transform="">
			<rect x="-1574" y="-2099.14" width="12.54" height="12.54"/>
		</g>
	</g>
	<g transform="translate(1098,1342) scale(0.61,0.61)">
		<g transform="">
			<rect x="-1748.93" y="-2099.14" width="12.54" height="12.54"/>
		</g>
	</g>
	<g transform="translate(1403,1342) scale(0.61,0.61)">
		<g transform="">
			<rect x="-2186.25" y="-2099.14" width="12.54" height="12.54"/>
		</g>
	</g>
	<g transform="translate(1464,1342) scale(0.61,0.61)">
		<g transform="">
			<rect x="-2273.72" y="-2099.14" width="12.54" height="12.54"/>
		</g>
	</g>
	<g transform="translate(1891,1342) scale(0.61,0.61)">
		<g transform="">
			<rect x="-2885.97" y="-2099.14" width="12.54" height="12.54"/>
		</g>
	</g>
	<g transform="translate(1952,1342) scale(0.61,0.61)">
		<g transform="">
			<rect x="-2973.43" y="-2099.14" width="12.54" height="12.54"/>
		</g>
	</g>
	<g transform="translate(61,1403) scale(0.61,0.61)">
		<g transform="">
			<rect x="-262.04" y="-2186.6" width="12.54" height="12.54"/>
		</g>
	</g>
	<g transform="translate(305,1403) scale(0.61,0.61)">
		<g transform="">
			<rect x="-611.9" y="-2186.6" width="12.54" height="12.54"/>
		</g>
	</g>
	<g transform="translate(427,1403) scale(0.61,0.61)">
		<g transform="">
			<rect x="-786.83" y="-2186.6" width="12.54" height="12.54"/>
		</g>
	</g>
	<g transform="translate(549,1403) scale(0.61,0.61)">
		<g transform="">
			<rect x="-961.76" y="-2186.6" width="12.54" height="12.54"/>
		</g>
	</g>
	<g transform="translate(610,1403) scale(0.61,0.61)">
		<g transform="">
			<rect x="-1049.22" y="-2186.6" width="12.54" height="12.54"/>
		</g>
	</g>
	<g transform="translate(671,1403) scale(0.61,0.61)">
		<g transform="">
			<rect x="-1136.68" y="-2186.6" width="12.54" height="12.54"/>
		</g>
	</g>
	<g transform="translate(732,1403) scale(0.61,0.61)">
		<g transform="">
			<rect x="-1224.15" y="-2186.6" width="12.54" height="12.54"/>
		</g>
	</g>
	<g transform="translate(793,1403) scale(0.61,0.61)">
		<g transform="">
			<rect x="-1311.61" y="-2186.6" width="12.54" height="12.54"/>
		</g>
	</g>
	<g transform="translate(854,1403) scale(0.61,0.61)">
		<g transform="">
			<rect x="-1399.08" y="-2186.6" width="12.54" height="12.54"/>
		</g>
	</g>
	<g transform="translate(976,1403) scale(0.61,0.61)">
		<g transform="">
			<rect x="-1574" y="-2186.6" width="12.54" height="12.54"/>
		</g>
	</g>
	<g transform="translate(1098,1403) scale(0.61,0.61)">
		<g transform="">
			<rect x="-1748.93" y="-2186.6" width="12.54" height="12.54"/>
		</g>
	</g>
	<g transform="translate(1159,1403) scale(0.61,0.61)">
		<g transform="">
			<rect x="-1836.4" y="-2186.6" width="12.54" height="12.54"/>
		</g>
	</g>
	<g transform="translate(1525,1403) scale(0.61,0.61)">
		<g transform="">
			<rect x="-2361.18" y="-2186.6" width="12.54" height="12.54"/>
		</g>
	</g>
	<g transform="translate(1647,1403) scale(0.61,0.61)">
		<g transform="">
			<rect x="-2536.11" y="-2186.6" width="12.54" height="12.54"/>
		</g>
	</g>
	<g transform="translate(1708,1403) scale(0.61,0.61)">
		<g transform="">
			<rect x="-2623.57" y="-2186.6" width="12.54" height="12.54"/>
		</g>
	</g>
	<g transform="translate(1769,1403) scale(0.61,0.61)">
		<g transform="">
			<rect x="-2711.04" y="-2186.6" width="12.54" height="12.54"/>
		</g>
	</g>
	<g transform="translate(1891,1403) scale(0.61,0.61)">
		<g transform="">
			<rect x="-2885.97" y="-2186.6" width="12.54" height="12.54"/>
		</g>
	</g>
	<g transform="translate(1952,1403) scale(0.61,0.61)">
		<g transform="">
			<rect x="-2973.43" y="-2186.6" width="12.54" height="12.54"/>
		</g>
	</g>
	<g transform="translate(0,1464) scale(0.61,0.61)">
		<g transform="">
			<rect x="-174.58" y="-2274.07" width="12.54" height="12.54"/>
		</g>
	</g>
	<g transform="translate(122,1464) scale(0.61,0.61)">
		<g transform="">
			<rect x="-349.51" y="-2274.07" width="12.54" height="12.54"/>
		</g>
	</g>
	<g transform="translate(183,1464) scale(0.61,0.61)">
		<g transform="">
			<rect x="-436.97" y="-2274.07" width="12.54" height="12.54"/>
		</g>
	</g>
	<g transform="translate(244,1464) scale(0.61,0.61)">
		<g transform="">
			<rect x="-524.44" y="-2274.07" width="12.54" height="12.54"/>
		</g>
	</g>
	<g transform="translate(305,1464) scale(0.61,0.61)">
		<g transform="">
			<rect x="-611.9" y="-2274.07" width="12.54" height="12.54"/>
		</g>
	</g>
	<g transform="translate(366,1464) scale(0.61,0.61)">
		<g transform="">
			<rect x="-699.36" y="-2274.07" width="12.54" height="12.54"/>
		</g>
	</g>
	<g transform="translate(427,1464) scale(0.61,0.61)">
		<g transform="">
			<rect x="-786.83" y="-2274.07" width="12.54" height="12.54"/>
		</g>
	</g>
	<g transform="translate(488,1464) scale(0.61,0.61)">
		<g transform="">
			<rect x="-874.29" y="-2274.07" width="12.54" height="12.54"/>
		</g>
	</g>
	<g transform="translate(793,1464) scale(0.61,0.61)">
		<g transform="">
			<rect x="-1311.61" y="-2274.07" width="12.54" height="12.54"/>
		</g>
	</g>
	<g transform="translate(915,1464) scale(0.61,0.61)">
		<g transform="">
			<rect x="-1486.54" y="-2274.07" width="12.54" height="12.54"/>
		</g>
	</g>
	<g transform="translate(1037,1464) scale(0.61,0.61)">
		<g transform="">
			<rect x="-1661.47" y="-2274.07" width="12.54" height="12.54"/>
		</g>
	</g>
	<g transform="translate(1342,1464) scale(0.61,0.61)">
		<g transform="">
			<rect x="-2098.79" y="-2274.07" width="12.54" height="12.54"/>
		</g>
	</g>
	<g transform="translate(1464,1464) scale(0.61,0.61)">
		<g transform="">
			<rect x="-2273.72" y="-2274.07" width="12.54" height="12.54"/>
		</g>
	</g>
	<g transform="translate(1525,1464) scale(0.61,0.61)">
		<g transform="">
			<rect x="-2361.18" y="-2274.07" width="12.54" height="12.54"/>
		</g>
	</g>
	<g transform="translate(1586,1464) scale(0.61,0.61)">
		<g transform="">
			<rect x="-2448.64" y="-2274.07" width="12.54" height="12.54"/>
		</g>
	</g>
	<g transform="translate(1647,1464) scale(0.61,0.61)">
		<g transform="">
			<rect x="-2536.11" y="-2274.07" width="12.54" height="12.54"/>
		</g>
	</g>
	<g transform="translate(1708,1464) scale(0.61,0.61)">
		<g transform="">
			<rect x="-2623.57" y="-2274.07" width="12.54" height="12.54"/>
		</g>
	</g>
	<g transform="translate(1891,1464) scale(0.61,0.61)">
		<g transform="">
			<rect x="-2885.97" y="-2274.07" width="12.54" height="12.54"/>
		</g>
	</g>
	<g transform="translate(488,1525) scale(0.61,0.61)">
		<g transform="">
			<rect x="-874.29" y="-2361.53" width="12.54" height="12.54"/>
		</g>
	</g>
	<g transform="translate(610,1525) scale(0.61,0.61)">
		<g transform="">
			<rect x="-1049.22" y="-2361.53" width="12.54" height="12.54"/>
		</g>
	</g>
	<g transform="translate(671,1525) scale(0.61,0.61)">
		<g transform="">
			<rect x="-1136.68" y="-2361.53" width="12.54" height="12.54"/>
		</g>
	</g>
	<g transform="translate(793,1525) scale(0.61,0.61)">
		<g transform="">
			<rect x="-1311.61" y="-2361.53" width="12.54" height="12.54"/>
		</g>
	</g>
	<g transform="translate(915,1525) scale(0.61,0.61)">
		<g transform="">
			<rect x="-1486.54" y="-2361.53" width="12.54" height="12.54"/>
		</g>
	</g>
	<g transform="translate(1037,1525) scale(0.61,0.61)">
		<g transform="">
			<rect x="-1661.47" y="-2361.53" width="12.54" height="12.54"/>
		</g>
	</g>
	<g transform="translate(1159,1525) scale(0.61,0.61)">
		<g transform="">
			<rect x="-1836.4" y="-2361.53" width="12.54" height="12.54"/>
		</g>
	</g>
	<g transform="translate(1281,1525) scale(0.61,0.61)">
		<g transform="">
			<rect x="-2011.32" y="-2361.53" width="12.54" height="12.54"/>
		</g>
	</g>
	<g transform="translate(1342,1525) scale(0.61,0.61)">
		<g transform="">
			<rect x="-2098.79" y="-2361.53" width="12.54" height="12.54"/>
		</g>
	</g>
	<g transform="translate(1403,1525) scale(0.61,0.61)">
		<g transform="">
			<rect x="-2186.25" y="-2361.53" width="12.54" height="12.54"/>
		</g>
	</g>
	<g transform="translate(1464,1525) scale(0.61,0.61)">
		<g transform="">
			<rect x="-2273.72" y="-2361.53" width="12.54" height="12.54"/>
		</g>
	</g>
	<g transform="translate(1708,1525) scale(0.61,0.61)">
		<g transform="">
			<rect x="-2623.57" y="-2361.53" width="12.54" height="12.54"/>
		</g>
	</g>
	<g transform="translate(1769,1525) scale(0.61,0.61)">
		<g transform="">
			<rect x="-2711.04" y="-2361.53" width="12.54" height="12.54"/>
		</g>
	</g>
	<g transform="translate(488,1586) scale(0.61,0.61)">
		<g transform="">
			<rect x="-874.29" y="-2448.99" width="12.54" height="12.54"/>
		</g>
	</g>
	<g transform="translate(549,1586) scale(0.61,0.61)">
		<g transform="">
			<rect x="-961.76" y="-2448.99" width="12.54" height="12.54"/>
		</g>
	</g>
	<g transform="translate(854,1586) scale(0.61,0.61)">
		<g transform="">
			<rect x="-1399.08" y="-2448.99" width="12.54" height="12.54"/>
		</g>
	</g>
	<g transform="translate(976,1586) scale(0.61,0.61)">
		<g transform="">
			<rect x="-1574" y="-2448.99" width="12.54" height="12.54"/>
		</g>
	</g>
	<g transform="translate(1159,1586) scale(0.61,0.61)">
		<g transform="">
			<rect x="-1836.4" y="-2448.99" width="12.54" height="12.54"/>
		</g>
	</g>
	<g transform="translate(1281,1586) scale(0.61,0.61)">
		<g transform="">
			<rect x="-2011.32" y="-2448.99" width="12.54" height="12.54"/>
		</g>
	</g>
	<g transform="translate(1403,1586) scale(0.61,0.61)">
		<g transform="">
			<rect x="-2186.25" y="-2448.99" width="12.54" height="12.54"/>
		</g>
	</g>
	<g transform="translate(1464,1586) scale(0.61,0.61)">
		<g transform="">
			<rect x="-2273.72" y="-2448.99" width="12.54" height="12.54"/>
		</g>
	</g>
	<g transform="translate(1586,1586) scale(0.61,0.61)">
		<g transform="">
			<rect x="-2448.64" y="-2448.99" width="12.54" height="12.54"/>
		</g>
	</g>
	<g transform="translate(1708,1586) scale(0.61,0.61)">
		<g transform="">
			<rect x="-2623.57" y="-2448.99" width="12.54" height="12.54"/>
		</g>
	</g>
	<g transform="translate(488,1647) scale(0.61,0.61)">
		<g transform="">
			<rect x="-874.29" y="-2536.46" width="12.54" height="12.54"/>
		</g>
	</g>
	<g transform="translate(671,1647) scale(0.61,0.61)">
		<g transform="">
			<rect x="-1136.68" y="-2536.46" width="12.54" height="12.54"/>
		</g>
	</g>
	<g transform="translate(732,1647) scale(0.61,0.61)">
		<g transform="">
			<rect x="-1224.15" y="-2536.46" width="12.54" height="12.54"/>
		</g>
	</g>
	<g transform="translate(976,1647) scale(0.61,0.61)">
		<g transform="">
			<rect x="-1574" y="-2536.46" width="12.54" height="12.54"/>
		</g>
	</g>
	<g transform="translate(1159,1647) scale(0.61,0.61)">
		<g transform="">
			<rect x="-1836.4" y="-2536.46" width="12.54" height="12.54"/>
		</g>
	</g>
	<g transform="translate(1220,1647) scale(0.61,0.61)">
		<g transform="">
			<rect x="-1923.86" y="-2536.46" width="12.54" height="12.54"/>
		</g>
	</g>
	<g transform="translate(1281,1647) scale(0.61,0.61)">
		<g transform="">
			<rect x="-2011.32" y="-2536.46" width="12.54" height="12.54"/>
		</g>
	</g>
	<g transform="translate(1403,1647) scale(0.61,0.61)">
		<g transform="">
			<rect x="-2186.25" y="-2536.46" width="12.54" height="12.54"/>
		</g>
	</g>
	<g transform="translate(1464,1647) scale(0.61,0.61)">
		<g transform="">
			<rect x="-2273.72" y="-2536.46" width="12.54" height="12.54"/>
		</g>
	</g>
	<g transform="translate(1708,1647) scale(0.61,0.61)">
		<g transform="">
			<rect x="-2623.57" y="-2536.46" width="12.54" height="12.54"/>
		</g>
	</g>
	<g transform="translate(1769,1647) scale(0.61,0.61)">
		<g transform="">
			<rect x="-2711.04" y="-2536.46" width="12.54" height="12.54"/>
		</g>
	</g>
	<g transform="translate(1830,1647) scale(0.61,0.61)">
		<g transform="">
			<rect x="-2798.5" y="-2536.46" width="12.54" height="12.54"/>
		</g>
	</g>
	<g transform="translate(1891,1647) scale(0.61,0.61)">
		<g transform="">
			<rect x="-2885.97" y="-2536.46" width="12.54" height="12.54"/>
		</g>
	</g>
	<g transform="translate(1952,1647) scale(0.61,0.61)">
		<g transform="">
			<rect x="-2973.43" y="-2536.46" width="12.54" height="12.54"/>
		</g>
	</g>
	<g transform="translate(549,1708) scale(0.61,0.61)">
		<g transform="">
			<rect x="-961.76" y="-2623.92" width="12.54" height="12.54"/>
		</g>
	</g>
	<g transform="translate(610,1708) scale(0.61,0.61)">
		<g transform="">
			<rect x="-1049.22" y="-2623.92" width="12.54" height="12.54"/>
		</g>
	</g>
	<g transform="translate(671,1708) scale(0.61,0.61)">
		<g transform="">
			<rect x="-1136.68" y="-2623.92" width="12.54" height="12.54"/>
		</g>
	</g>
	<g transform="translate(854,1708) scale(0.61,0.61)">
		<g transform="">
			<rect x="-1399.08" y="-2623.92" width="12.54" height="12.54"/>
		</g>
	</g>
	<g transform="translate(1037,1708) scale(0.61,0.61)">
		<g transform="">
			<rect x="-1661.47" y="-2623.92" width="12.54" height="12.54"/>
		</g>
	</g>
	<g transform="translate(1159,1708) scale(0.61,0.61)">
		<g transform="">
			<rect x="-1836.4" y="-2623.92" width="12.54" height="12.54"/>
		</g>
	</g>
	<g transform="translate(1220,1708) scale(0.61,0.61)">
		<g transform="">
			<rect x="-1923.86" y="-2623.92" width="12.54" height="12.54"/>
		</g>
	</g>
	<g transform="translate(1342,1708) scale(0.61,0.61)">
		<g transform="">
			<rect x="-2098.79" y="-2623.92" width="12.54" height="12.54"/>
		</g>
	</g>
	<g transform="translate(1403,1708) scale(0.61,0.61)">
		<g transform="">
			<rect x="-2186.25" y="-2623.92" width="12.54" height="12.54"/>
		</g>
	</g>
	<g transform="translate(1464,1708) scale(0.61,0.61)">
		<g transform="">
			<rect x="-2273.72" y="-2623.92" width="12.54" height="12.54"/>
		</g>
	</g>
	<g transform="translate(1525,1708) scale(0.61,0.61)">
		<g transform="">
			<rect x="-2361.18" y="-2623.92" width="12.54" height="12.54"/>
		</g>
	</g>
	<g transform="translate(1586,1708) scale(0.61,0.61)">
		<g transform="">
			<rect x="-2448.64" y="-2623.92" width="12.54" height="12.54"/>
		</g>
	</g>
	<g transform="translate(1647,1708) scale(0.61,0.61)">
		<g transform="">
			<rect x="-2536.11" y="-2623.92" width="12.54" height="12.54"/>
		</g>
	</g>
	<g transform="translate(1708,1708) scale(0.61,0.61)">
		<g transform="">
			<rect x="-2623.57" y="-2623.92" width="12.54" height="12.54"/>
		</g>
	</g>
	<g transform="translate(1830,1708) scale(0.61,0.61)">
		<g transform="">
			<rect x="-2798.5" y="-2623.92" width="12.54" height="12.54"/>
		</g>
	</g>
	<g transform="translate(1952,1708) scale(0.61,0.61)">
		<g transform="">
			<rect x="-2973.43" y="-2623.92" width="12.54" height="12.54"/>
		</g>
	</g>
	<g transform="translate(488,1769) scale(0.61,0.61)">
		<g transform="">
			<rect x="-874.29" y="-2711.39" width="12.54" height="12.54"/>
		</g>
	</g>
	<g transform="translate(549,1769) scale(0.61,0.61)">
		<g transform="">
			<rect x="-961.76" y="-2711.39" width="12.54" height="12.54"/>
		</g>
	</g>
	<g transform="translate(610,1769) scale(0.61,0.61)">
		<g transform="">
			<rect x="-1049.22" y="-2711.39" width="12.54" height="12.54"/>
		</g>
	</g>
	<g transform="translate(732,1769) scale(0.61,0.61)">
		<g transform="">
			<rect x="-1224.15" y="-2711.39" width="12.54" height="12.54"/>
		</g>
	</g>
	<g transform="translate(854,1769) scale(0.61,0.61)">
		<g transform="">
			<rect x="-1399.08" y="-2711.39" width="12.54" height="12.54"/>
		</g>
	</g>
	<g transform="translate(1037,1769) scale(0.61,0.61)">
		<g transform="">
			<rect x="-1661.47" y="-2711.39" width="12.54" height="12.54"/>
		</g>
	</g>
	<g transform="translate(1098,1769) scale(0.61,0.61)">
		<g transform="">
			<rect x="-1748.93" y="-2711.39" width="12.54" height="12.54"/>
		</g>
	</g>
	<g transform="translate(1159,1769) scale(0.61,0.61)">
		<g transform="">
			<rect x="-1836.4" y="-2711.39" width="12.54" height="12.54"/>
		</g>
	</g>
	<g transform="translate(1220,1769) scale(0.61,0.61)">
		<g transform="">
			<rect x="-1923.86" y="-2711.39" width="12.54" height="12.54"/>
		</g>
	</g>
	<g transform="translate(1342,1769) scale(0.61,0.61)">
		<g transform="">
			<rect x="-2098.79" y="-2711.39" width="12.54" height="12.54"/>
		</g>
	</g>
	<g transform="translate(1403,1769) scale(0.61,0.61)">
		<g transform="">
			<rect x="-2186.25" y="-2711.39" width="12.54" height="12.54"/>
		</g>
	</g>
	<g transform="translate(1647,1769) scale(0.61,0.61)">
		<g transform="">
			<rect x="-2536.11" y="-2711.39" width="12.54" height="12.54"/>
		</g>
	</g>
	<g transform="translate(1769,1769) scale(0.61,0.61)">
		<g transform="">
			<rect x="-2711.04" y="-2711.39" width="12.54" height="12.54"/>
		</g>
	</g>
	<g transform="translate(1830,1769) scale(0.61,0.61)">
		<g transform="">
			<rect x="-2798.5" y="-2711.39" width="12.54" height="12.54"/>
		</g>
	</g>
	<g transform="translate(1952,1769) scale(0.61,0.61)">
		<g transform="">
			<rect x="-2973.43" y="-2711.39" width="12.54" height="12.54"/>
		</g>
	</g>
	<g transform="translate(488,1830) scale(0.61,0.61)">
		<g transform="">
			<rect x="-874.29" y="-2798.85" width="12.54" height="12.54"/>
		</g>
	</g>
	<g transform="translate(549,1830) scale(0.61,0.61)">
		<g transform="">
			<rect x="-961.76" y="-2798.85" width="12.54" height="12.54"/>
		</g>
	</g>
	<g transform="translate(610,1830) scale(0.61,0.61)">
		<g transform="">
			<rect x="-1049.22" y="-2798.85" width="12.54" height="12.54"/>
		</g>
	</g>
	<g transform="translate(671,1830) scale(0.61,0.61)">
		<g transform="">
			<rect x="-1136.68" y="-2798.85" width="12.54" height="12.54"/>
		</g>
	</g>
	<g transform="translate(732,1830) scale(0.61,0.61)">
		<g transform="">
			<rect x="-1224.15" y="-2798.85" width="12.54" height="12.54"/>
		</g>
	</g>
	<g transform="translate(793,1830) scale(0.61,0.61)">
		<g transform="">
			<rect x="-1311.61" y="-2798.85" width="12.54" height="12.54"/>
		</g>
	</g>
	<g transform="translate(854,1830) scale(0.61,0.61)">
		<g transform="">
			<rect x="-1399.08" y="-2798.85" width="12.54" height="12.54"/>
		</g>
	</g>
	<g transform="translate(1037,1830) scale(0.61,0.61)">
		<g transform="">
			<rect x="-1661.47" y="-2798.85" width="12.54" height="12.54"/>
		</g>
	</g>
	<g transform="translate(1464,1830) scale(0.61,0.61)">
		<g transform="">
			<rect x="-2273.72" y="-2798.85" width="12.54" height="12.54"/>
		</g>
	</g>
	<g transform="translate(1586,1830) scale(0.61,0.61)">
		<g transform="">
			<rect x="-2448.64" y="-2798.85" width="12.54" height="12.54"/>
		</g>
	</g>
	<g transform="translate(1647,1830) scale(0.61,0.61)">
		<g transform="">
			<rect x="-2536.11" y="-2798.85" width="12.54" height="12.54"/>
		</g>
	</g>
	<g transform="translate(549,1891) scale(0.61,0.61)">
		<g transform="">
			<rect x="-961.76" y="-2886.31" width="12.54" height="12.54"/>
		</g>
	</g>
	<g transform="translate(610,1891) scale(0.61,0.61)">
		<g transform="">
			<rect x="-1049.22" y="-2886.31" width="12.54" height="12.54"/>
		</g>
	</g>
	<g transform="translate(671,1891) scale(0.61,0.61)">
		<g transform="">
			<rect x="-1136.68" y="-2886.31" width="12.54" height="12.54"/>
		</g>
	</g>
	<g transform="translate(854,1891) scale(0.61,0.61)">
		<g transform="">
			<rect x="-1399.08" y="-2886.31" width="12.54" height="12.54"/>
		</g>
	</g>
	<g transform="translate(915,1891) scale(0.61,0.61)">
		<g transform="">
			<rect x="-1486.54" y="-2886.31" width="12.54" height="12.54"/>
		</g>
	</g>
	<g transform="translate(976,1891) scale(0.61,0.61)">
		<g transform="">
			<rect x="-1574" y="-2886.31" width="12.54" height="12.54"/>
		</g>
	</g>
	<g transform="translate(1037,1891) scale(0.61,0.61)">
		<g transform="">
			<rect x="-1661.47" y="-2886.31" width="12.54" height="12.54"/>
		</g>
	</g>
	<g transform="translate(1098,1891) scale(0.61,0.61)">
		<g transform="">
			<rect x="-1748.93" y="-2886.31" width="12.54" height="12.54"/>
		</g>
	</g>
	<g transform="translate(1342,1891) scale(0.61,0.61)">
		<g transform="">
			<rect x="-2098.79" y="-2886.31" width="12.54" height="12.54"/>
		</g>
	</g>
	<g transform="translate(1403,1891) scale(0.61,0.61)">
		<g transform="">
			<rect x="-2186.25" y="-2886.31" width="12.54" height="12.54"/>
		</g>
	</g>
	<g transform="translate(1464,1891) scale(0.61,0.61)">
		<g transform="">
			<rect x="-2273.72" y="-2886.31" width="12.54" height="12.54"/>
		</g>
	</g>
	<g transform="translate(1525,1891) scale(0.61,0.61)">
		<g transform="">
			<rect x="-2361.18" y="-2886.31" width="12.54" height="12.54"/>
		</g>
	</g>
	<g transform="translate(1586,1891) scale(0.61,0.61)">
		<g transform="">
			<rect x="-2448.64" y="-2886.31" width="12.54" height="12.54"/>
		</g>
	</g>
	<g transform="translate(1647,1891) scale(0.61,0.61)">
		<g transform="">
			<rect x="-2536.11" y="-2886.31" width="12.54" height="12.54"/>
		</g>
	</g>
	<g transform="translate(1708,1891) scale(0.61,0.61)">
		<g transform="">
			<rect x="-2623.57" y="-2886.31" width="12.54" height="12.54"/>
		</g>
	</g>
	<g transform="translate(1952,1891) scale(0.61,0.61)">
		<g transform="">
			<rect x="-2973.43" y="-2886.31" width="12.54" height="12.54"/>
		</g>
	</g>
	<g transform="translate(488,1952) scale(0.61,0.61)">
		<g transform="">
			<rect x="-874.29" y="-2973.78" width="12.54" height="12.54"/>
		</g>
	</g>
	<g transform="translate(549,1952) scale(0.61,0.61)">
		<g transform="">
			<rect x="-961.76" y="-2973.78" width="12.54" height="12.54"/>
		</g>
	</g>
	<g transform="translate(671,1952) scale(0.61,0.61)">
		<g transform="">
			<rect x="-1136.68" y="-2973.78" width="12.54" height="12.54"/>
		</g>
	</g>
	<g transform="translate(793,1952) scale(0.61,0.61)">
		<g transform="">
			<rect x="-1311.61" y="-2973.78" width="12.54" height="12.54"/>
		</g>
	</g>
	<g transform="translate(915,1952) scale(0.61,0.61)">
		<g transform="">
			<rect x="-1486.54" y="-2973.78" width="12.54" height="12.54"/>
		</g>
	</g>
	<g transform="translate(1037,1952) scale(0.61,0.61)">
		<g transform="">
			<rect x="-1661.47" y="-2973.78" width="12.54" height="12.54"/>
		</g>
	</g>
	<g transform="translate(1098,1952) scale(0.61,0.61)">
		<g transform="">
			<rect x="-1748.93" y="-2973.78" width="12.54" height="12.54"/>
		</g>
	</g>
	<g transform="translate(1159,1952) scale(0.61,0.61)">
		<g transform="">
			<rect x="-1836.4" y="-2973.78" width="12.54" height="12.54"/>
		</g>
	</g>
	<g transform="translate(1281,1952) scale(0.61,0.61)">
		<g transform="">
			<rect x="-2011.32" y="-2973.78" width="12.54" height="12.54"/>
		</g>
	</g>
	<g transform="translate(1342,1952) scale(0.61,0.61)">
		<g transform="">
			<rect x="-2098.79" y="-2973.78" width="12.54" height="12.54"/>
		</g>
	</g>
	<g transform="translate(1403,1952) scale(0.61,0.61)">
		<g transform="">
			<rect x="-2186.25" y="-2973.78" width="12.54" height="12.54"/>
		</g>
	</g>
	<g transform="translate(1525,1952) scale(0.61,0.61)">
		<g transform="">
			<rect x="-2361.18" y="-2973.78" width="12.54" height="12.54"/>
		</g>
	</g>
	<g transform="translate(1708,1952) scale(0.61,0.61)">
		<g transform="">
			<rect x="-2623.57" y="-2973.78" width="12.54" height="12.54"/>
		</g>
	</g>
	<g transform="translate(1769,1952) scale(0.61,0.61)">
		<g transform="">
			<rect x="-2711.04" y="-2973.78" width="12.54" height="12.54"/>
		</g>
	</g>
	<g transform="translate(1830,1952) scale(0.61,0.61)">
		<g transform="">
			<rect x="-2798.5" y="-2973.78" width="12.54" height="12.54"/>
		</g>
	</g>
	<g transform="translate(0,0) scale(4.27, 4.27)">
		<g transform="">
			<g>
				<rect x="-23.06" y="-23.11" class="st1" width="8.78" height="8.78"/>
				<path d="M-14.28-24.99h-8.78h-1.88v1.88v8.78v1.88h1.88h8.78h1.88v-1.88v-8.78v-1.88H-14.28z M-14.28-14.33h-8.78v-8.78h8.78
					V-14.33z"/>
			</g>
		</g>
	</g>
	<g transform="translate(1586,0) scale(4.27, 4.27)">
		<g transform="">
			<g>
				<rect x="-347.93" y="-23.11" class="st1" width="8.78" height="8.78"/>
				<path d="M-339.15-24.99h-8.78h-1.88v1.88v8.78v1.88h1.88h8.78h1.88v-1.88v-8.78v-1.88H-339.15z M-339.15-14.33h-8.78v-8.78h8.78
					V-14.33z"/>
			</g>
		</g>
	</g>
	<g transform="translate(0,1586) scale(4.27, 4.27)">
		<g transform="">
			<g>
				<rect x="-23.06" y="-347.98" class="st1" width="8.78" height="8.78"/>
				<path d="M-14.28-349.86h-8.78h-1.88v1.88v8.78v1.88h1.88h8.78h1.88v-1.88v-8.78v-1.88H-14.28z M-14.28-339.2h-8.78v-8.78h8.78
					V-339.2z"/>
			</g>
		</g>
	</g>
	<g transform="translate(122,122) scale(1.83, 1.83)">
		<g transform="">
			<rect x="-116.5" y="-116.62" width="12.54" height="12.54"/>
		</g>
	</g>
	<g transform="translate(1708,122) scale(1.83, 1.83)">
		<g transform="">
			<rect x="-874.52" y="-116.62" width="12.54" height="12.54"/>
		</g>
	</g>
	<g transform="translate(122,1708) scale(1.83, 1.83)">
		<g transform="">
			<rect x="-116.5" y="-874.64" width="12.54" height="12.54"/>
		</g>
	</g>
</g>
</svg>
